<svg xmlns="http://www.w3.org/2000/svg" viewBox="0 0 960 640" role="img" aria-labelledby="title desc">
  <title id="title">지리 컷 예측 썸네일</title>
  <desc id="desc">등급컷 카드와 문항별 정답률 입력표를 배치한 포털 썸네일</desc>
  <rect width="960" height="640" fill="#fff7ed"/>
  <rect x="32" y="32" width="896" height="576" fill="#ffffff" stroke="#111111" stroke-width="3"/>
  <g>
    <rect x="70" y="76" width="246" height="170" fill="#d9f99d" stroke="#111111" stroke-width="3"/>
    <rect x="357" y="76" width="246" height="170" fill="#e0f2fe" stroke="#111111" stroke-width="3"/>
    <rect x="644" y="76" width="246" height="170" fill="#fef3c7" stroke="#111111" stroke-width="3"/>
  </g>
  <text x="102" y="136" fill="#111111" font-family="Pretendard, Arial, sans-serif" font-size="30" font-weight="900">1 CUT</text>
  <text x="102" y="205" fill="#111111" font-family="Pretendard, Arial, sans-serif" font-size="58" font-weight="900">47</text>
  <text x="389" y="136" fill="#111111" font-family="Pretendard, Arial, sans-serif" font-size="30" font-weight="900">2 CUT</text>
  <text x="389" y="205" fill="#111111" font-family="Pretendard, Arial, sans-serif" font-size="58" font-weight="900">43</text>
  <text x="676" y="136" fill="#111111" font-family="Pretendard, Arial, sans-serif" font-size="30" font-weight="900">3 CUT</text>
  <text x="676" y="205" fill="#111111" font-family="Pretendard, Arial, sans-serif" font-size="58" font-weight="900">37</text>
  <rect x="70" y="294" width="820" height="270" fill="#fbfaf7" stroke="#111111" stroke-width="3"/>
  <path d="M70 348h820M70 402h820M70 456h820M70 510h820M254 294v270M438 294v270M622 294v270" stroke="#111111" stroke-width="2"/>
  <g font-family="Pretendard, Arial, sans-serif" font-size="24" font-weight="900" fill="#111111">
    <text x="104" y="329">문항</text>
    <text x="288" y="329">배점</text>
    <text x="472" y="329">전국</text>
    <text x="656" y="329">재종 환산</text>
    <text x="104" y="383">01</text>
    <text x="288" y="383">3</text>
    <text x="472" y="383">84.2%</text>
    <text x="656" y="383">91.5%</text>
    <text x="104" y="437">02</text>
    <text x="288" y="437">2</text>
    <text x="472" y="437">71.8%</text>
    <text x="656" y="437">83.0%</text>
    <text x="104" y="491">03</text>
    <text x="288" y="491">2</text>
    <text x="472" y="491">58.4%</text>
    <text x="656" y="491">72.6%</text>
  </g>
</svg>
